<svg width="33" height="26" viewBox="0 0 33 26" fill="none" xmlns="http://www.w3.org/2000/svg">
<path d="M32.175 17.875H31.35V12.3855C31.35 11.7406 31.087 11.1211 30.623 10.6641L25.4719 5.59102C25.0078 5.13398 24.3787 4.875 23.7239 4.875H21.45V2.4375C21.45 1.0918 20.3414 0 18.975 0H2.475C1.10859 0 0 1.0918 0 2.4375V18.6875C0 20.0332 1.10859 21.125 2.475 21.125H3.3C3.3 23.8164 5.51719 26 8.25 26C10.9828 26 13.2 23.8164 13.2 21.125H19.8C19.8 23.8164 22.0172 26 24.75 26C27.4828 26 29.7 23.8164 29.7 21.125H32.175C32.6287 21.125 33 20.7594 33 20.3125V18.6875C33 18.2406 32.6287 17.875 32.175 17.875ZM8.25 23.5625C6.88359 23.5625 5.775 22.4707 5.775 21.125C5.775 19.7793 6.88359 18.6875 8.25 18.6875C9.61641 18.6875 10.725 19.7793 10.725 21.125C10.725 22.4707 9.61641 23.5625 8.25 23.5625ZM24.75 23.5625C23.3836 23.5625 22.275 22.4707 22.275 21.125C22.275 19.7793 23.3836 18.6875 24.75 18.6875C26.1164 18.6875 27.225 19.7793 27.225 21.125C27.225 22.4707 26.1164 23.5625 24.75 23.5625ZM28.875 13H21.45V7.3125H23.7239L28.875 12.3855V13Z" fill="black"/>
</svg>
