<svg width="36" height="32" viewBox="0 0 36 32" fill="none" xmlns="http://www.w3.org/2000/svg">
<path id="Vector" d="M33.0075 18.8324L35.9621 5.83244C36.1754 4.89381 35.4619 4 34.4994 4H9.9505L9.37763 1.19938C9.23488 0.501313 8.62063 0 7.90806 0H1.5C0.671563 0 0 0.671562 0 1.5V2.5C0 3.32844 0.671563 4 1.5 4H5.86769L10.2582 25.4647C9.20781 26.0688 8.5 27.2014 8.5 28.5C8.5 30.433 10.067 32 12 32C13.933 32 15.5 30.433 15.5 28.5C15.5 27.5204 15.0971 26.6353 14.4485 26H27.5514C26.9029 26.6353 26.5 27.5204 26.5 28.5C26.5 30.433 28.067 32 30 32C31.933 32 33.5 30.433 33.5 28.5C33.5 27.1143 32.6945 25.9167 31.5263 25.3497L31.8711 23.8324C32.0844 22.8938 31.371 22 30.4084 22H13.6323L13.2233 20H31.5448C32.2452 20 32.8523 19.5154 33.0075 18.8324Z" fill="#FF9900"/>
</svg>
