<svg width="24" height="21" viewBox="0 0 24 21" fill="none" xmlns="http://www.w3.org/2000/svg">
<path d="M1.5 19.3886C1.5 20.2135 2.17031 20.88 3 20.88H10.5V13.4229H1.5V19.3886ZM13.5 20.88H21C21.8297 20.88 22.5 20.2135 22.5 19.3886V13.4229H13.5V20.88ZM22.5 5.96571H20.5266C20.8172 5.40177 21 4.77723 21 4.10143C21 1.84098 19.1484 0 16.875 0C14.925 0 13.6641 0.992732 12.0469 3.18327C10.4297 0.992732 9.16875 0 7.21875 0C4.94531 0 3.09375 1.84098 3.09375 4.10143C3.09375 4.77723 3.27187 5.40177 3.56719 5.96571H1.5C0.670312 5.96571 0 6.6322 0 7.45714V11.1857C0 11.5959 0.3375 11.9314 0.75 11.9314H23.25C23.6625 11.9314 24 11.5959 24 11.1857V7.45714C24 6.6322 23.3297 5.96571 22.5 5.96571ZM7.21406 5.96571C6.17812 5.96571 5.33906 5.13145 5.33906 4.10143C5.33906 3.07141 6.17812 2.23714 7.21406 2.23714C8.14687 2.23714 8.83594 2.39095 11.25 5.96571H7.21406ZM16.875 5.96571H12.8391C15.2484 2.40027 15.9187 2.23714 16.875 2.23714C17.9109 2.23714 18.75 3.07141 18.75 4.10143C18.75 5.13145 17.9109 5.96571 16.875 5.96571Z" fill="#FF9900"/>
</svg>
