<svg width="19" height="21" viewBox="0 0 19 21" fill="none" xmlns="http://www.w3.org/2000/svg">
<path d="M9.37326 6.5625C11.5315 6.5625 13.2795 5.09414 13.2795 3.28125C13.2795 1.46836 11.5315 0 9.37326 0C7.21506 0 5.46701 1.46836 5.46701 3.28125C5.46701 5.09414 7.21506 6.5625 9.37326 6.5625ZM6.76584 16.7672L8.01584 15.4547L5.01291 13.3547L2.7717 15.709C2.21506 16.2914 2.20041 17.1199 2.73264 17.7188L5.07639 20.3438C5.46213 20.7744 6.04807 21 6.63889 21C7.04416 21 7.4592 20.8934 7.81076 20.6719C8.67502 20.1305 8.84592 19.101 8.20139 18.375L6.76584 16.7672ZM13.7336 13.3547L10.7307 15.4547L11.9807 16.7672L10.5451 18.375C9.90061 19.101 10.0715 20.1305 10.9358 20.6719C11.2873 20.8934 11.6975 21 12.1076 21C12.7033 21 13.2893 20.7744 13.6701 20.3438L16.0139 17.7188C16.5461 17.1199 16.5315 16.2914 15.9748 15.709L13.7336 13.3547ZM18.3918 5.94727C17.7717 5.20488 16.5559 5.02852 15.6721 5.54531L13.6897 6.71426C11.1164 8.23184 7.62522 8.23184 5.05686 6.71426L3.07443 5.54941C2.19065 5.02852 0.974825 5.20898 0.354708 5.94727C-0.265409 6.68965 -0.0505655 7.71094 0.828341 8.23184L2.81076 9.40078C3.64084 9.88887 4.53928 10.258 5.46701 10.5451V11.8125H13.2795V10.5492C14.2072 10.2621 15.1057 9.89297 15.9358 9.40488L17.9182 8.23594C18.802 7.71094 19.0119 6.68965 18.3918 5.94727Z" fill="#FF9900"/>
</svg>
