<svg width="25" height="20" viewBox="0 0 25 20" fill="none" xmlns="http://www.w3.org/2000/svg">
<path d="M24.1016 11.6363L18.4115 3.50694C17.4436 2.12674 15.9028 1.38889 14.3403 1.38889C13.3594 1.38889 12.3655 1.67969 11.4974 2.28733C10.6424 2.88628 10.0347 3.71094 9.69618 4.6224C9.57031 2.04861 7.46528 0 4.86111 0C2.17448 0 0 2.17448 0 4.86111V14.5833C0 17.27 2.17448 19.4444 4.86111 19.4444C7.54774 19.4444 9.72222 17.27 9.72222 14.5833V8.11198C9.86545 8.48524 10.0391 8.85417 10.2778 9.19705L15.9722 17.3264C16.9358 18.7066 18.4766 19.4444 20.0434 19.4444C21.0286 19.4444 22.0182 19.1536 22.8863 18.546C25.1302 16.9748 25.6727 13.8802 24.1016 11.6363ZM6.94444 9.72222H2.77778V4.86111C2.77778 3.71094 3.71094 2.77778 4.86111 2.77778C6.01128 2.77778 6.94444 3.71094 6.94444 4.86111V9.72222ZM15.3993 11.671L12.5521 7.60417C12.2179 7.12674 12.0877 6.54514 12.1918 5.97222C12.2917 5.39931 12.6128 4.89583 13.0903 4.56163C13.4592 4.30122 13.8932 4.16667 14.3403 4.16667C15.0564 4.16667 15.7248 4.51389 16.1328 5.09983L18.98 9.16667L15.3993 11.671Z" fill="#FF9900"/>
</svg>
