<svg width="33" height="26" viewBox="0 0 33 26" fill="none" xmlns="http://www.w3.org/2000/svg">
<path d="M25.1636 9.74972H17.3261V12.5937C17.3261 14.6099 15.6607 16.2503 13.6137 16.2503C11.5666 16.2503 9.90116 14.6099 9.90116 12.5937V6.41819L6.55476 8.39883C5.5596 8.98286 4.95117 10.0443 4.95117 11.1819V13.584L0.826175 15.9303C0.0372697 16.3772 -0.236011 17.3726 0.222894 18.1497L4.34789 25.1885C4.80164 25.9655 5.81226 26.2296 6.60116 25.7827L11.9327 22.7508H18.9761C20.7963 22.7508 22.2761 21.2933 22.2761 19.5005H23.1011C24.0138 19.5005 24.7511 18.7743 24.7511 17.8754V14.6251H25.1636C25.8494 14.6251 26.4011 14.0817 26.4011 13.4063V10.9686C26.4011 10.2931 25.8494 9.74972 25.1636 9.74972ZM32.7794 7.85035L28.6544 0.81147C28.2007 0.0344513 27.19 -0.229633 26.4011 0.217279L21.0696 3.24918H15.7999C15.1811 3.24918 14.5779 3.42185 14.0519 3.7418L12.3246 4.80321C11.8399 5.09777 11.5512 5.62086 11.5512 6.1795V12.5937C11.5512 13.7161 12.4741 14.6251 13.6137 14.6251C14.7532 14.6251 15.6761 13.7161 15.6761 12.5937V8.12459H25.1636C26.7569 8.12459 28.0511 9.3993 28.0511 10.9686V12.416L32.1761 10.0697C32.965 9.61768 33.2331 8.62736 32.7794 7.85035Z" fill="black"/>
</svg>
