<svg width="20" height="21" viewBox="0 0 20 21" fill="none" xmlns="http://www.w3.org/2000/svg">
<path d="M19.4153 2.13207C19.2218 1.39012 18.6452 0.807169 17.9113 0.607415C16.9476 0.346512 15.4435 0.0366895 13.6855 0L20 6.39213C19.9677 4.6188 19.6694 3.10638 19.4153 2.13207ZM0.584677 18.0879C0.778226 18.8299 1.35484 19.4128 2.08871 19.6126C3.05242 19.8735 4.55645 20.1833 6.31452 20.22L0 13.8279C0.0322581 15.6012 0.330645 17.1136 0.584677 18.0879ZM0.169355 11.227L8.8871 20.0569C14.2298 19.2661 18.9194 15.218 19.8347 8.99301L11.1129 0.163065C5.77016 0.953927 1.08065 5.002 0.169355 11.227ZM12.9637 6.1883C13.0887 6.06192 13.2944 6.06192 13.4194 6.1883L13.875 6.64896C14 6.77533 14 6.98324 13.875 7.10961L12.7339 8.26329L13.875 9.41698C14 9.54335 14 9.75126 13.875 9.87763L13.4194 10.3383C13.2944 10.4647 13.0887 10.4647 12.9637 10.3383L11.8226 9.18461L10.9113 10.11L12.0524 11.2637C12.1774 11.3901 12.1774 11.598 12.0524 11.7243L11.5968 12.185C11.4718 12.3114 11.2661 12.3114 11.1411 12.185L10 11.0313L9.08871 11.9526L10.2298 13.1063C10.3548 13.2327 10.3548 13.4406 10.2298 13.567L9.77419 14.0276C9.64919 14.154 9.44355 14.154 9.31855 14.0276L8.17742 12.8739L7.03629 14.0276C6.91129 14.154 6.70564 14.154 6.58064 14.0276L6.125 13.567C6 13.4406 6 13.2327 6.125 13.1063L7.26613 11.9526L6.125 10.803C6 10.6766 6 10.4687 6.125 10.3424L6.58064 9.88171C6.70564 9.75533 6.91129 9.75533 7.03629 9.88171L8.17742 11.0354L9.08871 10.1141L7.94758 8.96039C7.82258 8.83402 7.82258 8.62611 7.94758 8.49974L8.40322 8.03908C8.52822 7.91271 8.73387 7.91271 8.85887 8.03908L10 9.19276L10.9113 8.27145L9.77016 7.11777C9.64516 6.99139 9.64516 6.78348 9.77016 6.65711L10.2258 6.19645C10.3508 6.07008 10.5565 6.07008 10.6815 6.19645L11.8226 7.35013L12.9637 6.1883Z" fill="#FF9900"/>
</svg>
