<svg width="36" height="32" viewBox="0 0 36 32" fill="none" xmlns="http://www.w3.org/2000/svg">
<path id="Vector" d="M18 0C8.05645 0 0 7.16129 0 16C0 24.8387 8.05645 32 18 32C27.9435 32 36 24.8387 36 16C36 7.16129 27.9435 0 18 0ZM18 6.19355C21.5274 6.19355 24.3871 8.73548 24.3871 11.871C24.3871 15.0065 21.5274 17.5484 18 17.5484C14.4726 17.5484 11.6129 15.0065 11.6129 11.871C11.6129 8.73548 14.4726 6.19355 18 6.19355ZM18 28.3871C13.7395 28.3871 9.92177 26.671 7.36694 23.9871C8.73145 21.7032 11.4024 20.129 14.5161 20.129C14.6903 20.129 14.8645 20.1548 15.0315 20.2C15.975 20.471 16.9621 20.6452 18 20.6452C19.0379 20.6452 20.0323 20.471 20.9685 20.2C21.1355 20.1548 21.3097 20.129 21.4839 20.129C24.5976 20.129 27.2685 21.7032 28.6331 23.9871C26.0782 26.671 22.2605 28.3871 18 28.3871Z" fill="#FF9900"/>
</svg>
