<svg width="31" height="22" viewBox="0 0 31 22" fill="none" xmlns="http://www.w3.org/2000/svg">
<path d="M30.087 1.10295C28.2081 0.303973 26.3278 5.9064e-08 24.4484 5.9064e-08C18.4825 -0.000491012 12.517 3.06134 6.55107 3.06134C5.05486 3.06134 3.55962 2.86884 2.06341 2.38759C1.89533 2.33357 1.72677 2.30804 1.56208 2.30804C0.728489 2.30804 0 2.96214 0 3.87013V19.4499C0 20.0701 0.350198 20.6579 0.912548 20.8966C2.79141 21.696 4.67172 22 6.55107 22C12.517 22 18.483 18.9382 24.4489 18.9382C25.9451 18.9382 27.4404 19.1307 28.9366 19.6119C29.1047 19.6659 29.2732 19.6915 29.4379 19.6915C30.2715 19.6915 31 19.0374 31 18.1294V2.55013C30.9995 1.92942 30.6493 1.3421 30.087 1.10295ZM2.32496 4.92152C3.29951 5.16902 4.31668 5.29326 5.36292 5.36004C5.07811 6.8033 3.8265 7.89103 2.32496 7.89103V4.92152ZM2.32496 18.9171V16.5707C3.98973 16.5707 5.33676 17.9099 5.41087 19.5859C4.31959 19.497 3.29951 19.276 2.32496 18.9171ZM15.4998 15.7143C13.3593 15.7143 11.6248 13.6032 11.6248 11C11.6248 8.39634 13.3598 6.28571 15.4998 6.28571C17.6397 6.28571 19.3747 8.39634 19.3747 11C19.3747 13.6042 17.6392 15.7143 15.4998 15.7143ZM28.6746 17.0785C27.8259 16.8629 26.9449 16.7421 26.0435 16.664C26.3278 15.3833 27.3755 14.411 28.6746 14.244V17.0785ZM28.6746 5.48379C27.1783 5.29179 26.0173 4.02531 25.9713 2.46125C26.9178 2.56781 27.8163 2.76719 28.6746 3.08295V5.48379Z" fill="black"/>
</svg>
